<mxfile host="app.diagrams.net" agent="Mozilla/5.0 (Windows NT 10.0; Win64; x64) AppleWebKit/537.36 (KHTML, like Gecko) Chrome/128.0.0.0 Whale/3.28.266.14 Safari/537.36" version="24.8.4">
  <diagram name="페이지-1" id="GI_cNQfDrmmtMgsHmbao">
    <mxGraphModel dx="1142" dy="1115" grid="0" gridSize="10" guides="1" tooltips="1" connect="1" arrows="1" fold="1" page="0" pageScale="1" pageWidth="827" pageHeight="1169" background="none" math="0" shadow="0">
      <root>
        <mxCell id="0" />
        <mxCell id="1" parent="0" />
        <mxCell id="wY4W4VZifrKlg0zCaD7g-78" style="edgeStyle=orthogonalEdgeStyle;rounded=0;orthogonalLoop=1;jettySize=auto;html=1;entryX=0.5;entryY=1;entryDx=0;entryDy=0;strokeColor=#23445D;" edge="1" parent="1" source="TKPz3-VpZLi9evQmxMaP-30" target="wY4W4VZifrKlg0zCaD7g-77">
          <mxGeometry relative="1" as="geometry" />
        </mxCell>
        <mxCell id="TKPz3-VpZLi9evQmxMaP-30" value="건설" style="shape=associativeEntity;whiteSpace=wrap;html=1;align=center;fillColor=none;labelBackgroundColor=none;strokeColor=#FFFFFF;fontColor=#FFFFFF;" parent="1" vertex="1">
          <mxGeometry x="244" y="115" width="60" height="25" as="geometry" />
        </mxCell>
        <mxCell id="XNvULCzM_jkl3tWQT3Cz-3" value="1" style="edgeStyle=orthogonalEdgeStyle;rounded=0;orthogonalLoop=1;jettySize=auto;html=1;endArrow=none;endFill=0;entryX=0.3;entryY=0.283;entryDx=0;entryDy=0;entryPerimeter=0;labelBackgroundColor=none;strokeColor=#23445D;fontColor=default;" parent="1" source="TKPz3-VpZLi9evQmxMaP-33" target="XNvULCzM_jkl3tWQT3Cz-2" edge="1">
          <mxGeometry relative="1" as="geometry">
            <Array as="points">
              <mxPoint x="320" y="600" />
              <mxPoint x="320" y="669" />
            </Array>
          </mxGeometry>
        </mxCell>
        <mxCell id="wY4W4VZifrKlg0zCaD7g-9" value="N" style="edgeStyle=orthogonalEdgeStyle;rounded=0;orthogonalLoop=1;jettySize=auto;html=1;endArrow=none;endFill=0;labelBackgroundColor=none;strokeColor=#23445D;fontColor=default;" edge="1" parent="1" source="TKPz3-VpZLi9evQmxMaP-33" target="wY4W4VZifrKlg0zCaD7g-7">
          <mxGeometry relative="1" as="geometry">
            <Array as="points">
              <mxPoint x="170" y="330" />
              <mxPoint x="230" y="330" />
            </Array>
          </mxGeometry>
        </mxCell>
        <mxCell id="wY4W4VZifrKlg0zCaD7g-46" style="edgeStyle=orthogonalEdgeStyle;rounded=0;orthogonalLoop=1;jettySize=auto;html=1;entryX=1;entryY=0.5;entryDx=0;entryDy=0;strokeColor=#23445D;" edge="1" parent="1" source="TKPz3-VpZLi9evQmxMaP-33" target="wY4W4VZifrKlg0zCaD7g-41">
          <mxGeometry relative="1" as="geometry" />
        </mxCell>
        <mxCell id="wY4W4VZifrKlg0zCaD7g-47" style="edgeStyle=orthogonalEdgeStyle;rounded=0;orthogonalLoop=1;jettySize=auto;html=1;entryX=1;entryY=0.5;entryDx=0;entryDy=0;strokeColor=#23445D;" edge="1" parent="1" source="TKPz3-VpZLi9evQmxMaP-33" target="wY4W4VZifrKlg0zCaD7g-38">
          <mxGeometry relative="1" as="geometry" />
        </mxCell>
        <mxCell id="wY4W4VZifrKlg0zCaD7g-48" style="edgeStyle=orthogonalEdgeStyle;rounded=0;orthogonalLoop=1;jettySize=auto;html=1;entryX=1;entryY=0.5;entryDx=0;entryDy=0;strokeColor=#23445D;" edge="1" parent="1" source="TKPz3-VpZLi9evQmxMaP-33" target="wY4W4VZifrKlg0zCaD7g-43">
          <mxGeometry relative="1" as="geometry" />
        </mxCell>
        <mxCell id="wY4W4VZifrKlg0zCaD7g-49" style="edgeStyle=orthogonalEdgeStyle;rounded=0;orthogonalLoop=1;jettySize=auto;html=1;entryX=1;entryY=0.5;entryDx=0;entryDy=0;strokeColor=#23445D;" edge="1" parent="1" source="TKPz3-VpZLi9evQmxMaP-33" target="wY4W4VZifrKlg0zCaD7g-44">
          <mxGeometry relative="1" as="geometry" />
        </mxCell>
        <mxCell id="wY4W4VZifrKlg0zCaD7g-50" style="edgeStyle=orthogonalEdgeStyle;rounded=0;orthogonalLoop=1;jettySize=auto;html=1;entryX=1;entryY=0.5;entryDx=0;entryDy=0;strokeColor=#23445D;" edge="1" parent="1" source="TKPz3-VpZLi9evQmxMaP-33" target="wY4W4VZifrKlg0zCaD7g-45">
          <mxGeometry relative="1" as="geometry" />
        </mxCell>
        <mxCell id="TKPz3-VpZLi9evQmxMaP-33" value="정착민" style="whiteSpace=wrap;html=1;align=center;labelBackgroundColor=none;fillColor=#182E3E;strokeColor=#FFFFFF;fontColor=#FFFFFF;" parent="1" vertex="1">
          <mxGeometry x="130" y="575" width="60" height="30" as="geometry" />
        </mxCell>
        <mxCell id="wY4W4VZifrKlg0zCaD7g-11" value="1" style="edgeStyle=orthogonalEdgeStyle;rounded=0;orthogonalLoop=1;jettySize=auto;html=1;entryX=1;entryY=0.5;entryDx=0;entryDy=0;endArrow=none;endFill=0;labelBackgroundColor=none;strokeColor=#23445D;fontColor=default;" edge="1" parent="1" source="TKPz3-VpZLi9evQmxMaP-34" target="TKPz3-VpZLi9evQmxMaP-30">
          <mxGeometry relative="1" as="geometry">
            <Array as="points">
              <mxPoint x="520" y="125" />
              <mxPoint x="520" y="115" />
              <mxPoint x="397" y="115" />
              <mxPoint x="397" y="128" />
            </Array>
          </mxGeometry>
        </mxCell>
        <mxCell id="wY4W4VZifrKlg0zCaD7g-72" style="edgeStyle=orthogonalEdgeStyle;rounded=0;orthogonalLoop=1;jettySize=auto;html=1;entryX=0;entryY=0.5;entryDx=0;entryDy=0;strokeColor=#23445D;endArrow=none;endFill=0;" edge="1" parent="1" source="TKPz3-VpZLi9evQmxMaP-34" target="wY4W4VZifrKlg0zCaD7g-68">
          <mxGeometry relative="1" as="geometry" />
        </mxCell>
        <mxCell id="wY4W4VZifrKlg0zCaD7g-73" style="edgeStyle=orthogonalEdgeStyle;rounded=0;orthogonalLoop=1;jettySize=auto;html=1;entryX=0;entryY=0.5;entryDx=0;entryDy=0;strokeColor=#23445D;endArrow=none;endFill=0;" edge="1" parent="1" source="TKPz3-VpZLi9evQmxMaP-34" target="wY4W4VZifrKlg0zCaD7g-67">
          <mxGeometry relative="1" as="geometry" />
        </mxCell>
        <mxCell id="wY4W4VZifrKlg0zCaD7g-74" style="edgeStyle=orthogonalEdgeStyle;rounded=0;orthogonalLoop=1;jettySize=auto;html=1;entryX=0;entryY=0.5;entryDx=0;entryDy=0;strokeColor=#23445D;endArrow=none;endFill=0;" edge="1" parent="1" source="TKPz3-VpZLi9evQmxMaP-34" target="wY4W4VZifrKlg0zCaD7g-69">
          <mxGeometry relative="1" as="geometry" />
        </mxCell>
        <mxCell id="wY4W4VZifrKlg0zCaD7g-75" style="edgeStyle=orthogonalEdgeStyle;rounded=0;orthogonalLoop=1;jettySize=auto;html=1;strokeColor=#23445D;endArrow=none;endFill=0;" edge="1" parent="1" source="TKPz3-VpZLi9evQmxMaP-34" target="wY4W4VZifrKlg0zCaD7g-70">
          <mxGeometry relative="1" as="geometry" />
        </mxCell>
        <mxCell id="TKPz3-VpZLi9evQmxMaP-34" value="건물&lt;span style=&quot;color: rgba(0, 0, 0, 0); font-family: monospace; font-size: 0px; text-align: start; text-wrap: nowrap;&quot;&gt;%3CmxGraphModel%3E%3Croot%3E%3CmxCell%20id%3D%220%22%2F%3E%3CmxCell%20id%3D%221%22%20parent%3D%220%22%2F%3E%3CmxCell%20id%3D%222%22%20value%3D%22%EC%A0%95%EC%B0%A9%EB%AF%BC%22%20style%3D%22whiteSpace%3Dwrap%3Bhtml%3D1%3Balign%3Dcenter%3B%22%20vertex%3D%221%22%20parent%3D%221%22%3E%3CmxGeometry%20x%3D%22120%22%20y%3D%22410%22%20width%3D%22100%22%20height%3D%2240%22%20as%3D%22geometry%22%2F%3E%3C%2FmxCell%3E%3C%2Froot%3E%3C%2FmxGraphModel%3E&lt;/span&gt;&lt;span style=&quot;color: rgba(0, 0, 0, 0); font-family: monospace; font-size: 0px; text-align: start; text-wrap: nowrap;&quot;&gt;%3CmxGraphModel%3E%3Croot%3E%3CmxCell%20id%3D%220%22%2F%3E%3CmxCell%20id%3D%221%22%20parent%3D%220%22%2F%3E%3CmxCell%20id%3D%222%22%20value%3D%22%EC%A0%95%EC%B0%A9%EB%AF%BC%22%20style%3D%22whiteSpace%3Dwrap%3Bhtml%3D1%3Balign%3Dcenter%3B%22%20vertex%3D%221%22%20parent%3D%221%22%3E%3CmxGeometry%20x%3D%22120%22%20y%3D%22410%22%20width%3D%22100%22%20height%3D%2240%22%20as%3D%22geometry%22%2F%3E%3C%2FmxCell%3E%3C%2Froot%3E%3C%2FmxGraphModel%3E&lt;/span&gt;" style="whiteSpace=wrap;html=1;align=center;labelBackgroundColor=none;fillColor=#182E3E;strokeColor=#FFFFFF;fontColor=#FFFFFF;" parent="1" vertex="1">
          <mxGeometry x="544" y="110" width="60" height="30" as="geometry" />
        </mxCell>
        <mxCell id="XNvULCzM_jkl3tWQT3Cz-17" value="M" style="edgeStyle=orthogonalEdgeStyle;rounded=0;orthogonalLoop=1;jettySize=auto;html=1;entryX=0.5;entryY=1;entryDx=0;entryDy=0;endArrow=none;endFill=0;labelBackgroundColor=none;strokeColor=#23445D;fontColor=default;" parent="1" source="TKPz3-VpZLi9evQmxMaP-35" target="XNvULCzM_jkl3tWQT3Cz-16" edge="1">
          <mxGeometry relative="1" as="geometry" />
        </mxCell>
        <mxCell id="wY4W4VZifrKlg0zCaD7g-18" value="N" style="edgeStyle=orthogonalEdgeStyle;rounded=0;orthogonalLoop=1;jettySize=auto;html=1;endArrow=none;endFill=0;labelBackgroundColor=none;strokeColor=#23445D;fontColor=default;" edge="1" parent="1" source="TKPz3-VpZLi9evQmxMaP-35" target="wY4W4VZifrKlg0zCaD7g-17">
          <mxGeometry relative="1" as="geometry" />
        </mxCell>
        <mxCell id="wY4W4VZifrKlg0zCaD7g-83" style="edgeStyle=orthogonalEdgeStyle;rounded=0;orthogonalLoop=1;jettySize=auto;html=1;entryX=1;entryY=1;entryDx=0;entryDy=0;strokeColor=#23445D;endArrow=none;endFill=0;" edge="1" parent="1" source="TKPz3-VpZLi9evQmxMaP-35" target="wY4W4VZifrKlg0zCaD7g-82">
          <mxGeometry relative="1" as="geometry">
            <Array as="points">
              <mxPoint x="294" y="390" />
            </Array>
          </mxGeometry>
        </mxCell>
        <mxCell id="wY4W4VZifrKlg0zCaD7g-84" style="edgeStyle=orthogonalEdgeStyle;rounded=0;orthogonalLoop=1;jettySize=auto;html=1;entryX=0.5;entryY=1;entryDx=0;entryDy=0;strokeColor=#23445D;endArrow=none;endFill=0;" edge="1" parent="1" source="TKPz3-VpZLi9evQmxMaP-35" target="wY4W4VZifrKlg0zCaD7g-79">
          <mxGeometry relative="1" as="geometry" />
        </mxCell>
        <mxCell id="TKPz3-VpZLi9evQmxMaP-35" value="아이템" style="whiteSpace=wrap;html=1;align=center;labelBackgroundColor=none;fillColor=#182E3E;strokeColor=#FFFFFF;fontColor=#FFFFFF;" parent="1" vertex="1">
          <mxGeometry x="324" y="390" width="60" height="30" as="geometry" />
        </mxCell>
        <mxCell id="wY4W4VZifrKlg0zCaD7g-107" style="edgeStyle=orthogonalEdgeStyle;rounded=0;orthogonalLoop=1;jettySize=auto;html=1;strokeColor=#23445D;endArrow=none;endFill=0;" edge="1" parent="1" source="TKPz3-VpZLi9evQmxMaP-36" target="wY4W4VZifrKlg0zCaD7g-106">
          <mxGeometry relative="1" as="geometry" />
        </mxCell>
        <mxCell id="wY4W4VZifrKlg0zCaD7g-109" style="edgeStyle=orthogonalEdgeStyle;rounded=0;orthogonalLoop=1;jettySize=auto;html=1;strokeColor=#23445D;endArrow=none;endFill=0;" edge="1" parent="1" source="TKPz3-VpZLi9evQmxMaP-36" target="wY4W4VZifrKlg0zCaD7g-102">
          <mxGeometry relative="1" as="geometry">
            <Array as="points">
              <mxPoint x="543" y="593" />
            </Array>
          </mxGeometry>
        </mxCell>
        <mxCell id="wY4W4VZifrKlg0zCaD7g-110" style="edgeStyle=orthogonalEdgeStyle;rounded=0;orthogonalLoop=1;jettySize=auto;html=1;entryX=0;entryY=0.5;entryDx=0;entryDy=0;strokeColor=#23445D;endArrow=none;endFill=0;" edge="1" parent="1" source="TKPz3-VpZLi9evQmxMaP-36" target="wY4W4VZifrKlg0zCaD7g-101">
          <mxGeometry relative="1" as="geometry">
            <Array as="points">
              <mxPoint x="562" y="640" />
              <mxPoint x="564" y="640" />
              <mxPoint x="564" y="630" />
            </Array>
          </mxGeometry>
        </mxCell>
        <mxCell id="wY4W4VZifrKlg0zCaD7g-112" style="edgeStyle=orthogonalEdgeStyle;rounded=0;orthogonalLoop=1;jettySize=auto;html=1;strokeColor=#23445D;endArrow=none;endFill=0;" edge="1" parent="1" source="TKPz3-VpZLi9evQmxMaP-36">
          <mxGeometry relative="1" as="geometry">
            <mxPoint x="567.8333333333335" y="711" as="targetPoint" />
            <Array as="points">
              <mxPoint x="543" y="710" />
              <mxPoint x="585" y="710" />
              <mxPoint x="585" y="711" />
            </Array>
          </mxGeometry>
        </mxCell>
        <mxCell id="wY4W4VZifrKlg0zCaD7g-113" style="edgeStyle=orthogonalEdgeStyle;rounded=0;orthogonalLoop=1;jettySize=auto;html=1;entryX=0;entryY=0.5;entryDx=0;entryDy=0;strokeColor=#23445D;endArrow=none;endFill=0;" edge="1" parent="1" source="TKPz3-VpZLi9evQmxMaP-36" target="wY4W4VZifrKlg0zCaD7g-105">
          <mxGeometry relative="1" as="geometry">
            <Array as="points">
              <mxPoint x="575" y="746" />
            </Array>
          </mxGeometry>
        </mxCell>
        <mxCell id="wY4W4VZifrKlg0zCaD7g-114" style="edgeStyle=orthogonalEdgeStyle;rounded=0;orthogonalLoop=1;jettySize=auto;html=1;entryX=0;entryY=0.5;entryDx=0;entryDy=0;strokeColor=#23445D;endArrow=none;endFill=0;" edge="1" parent="1" source="TKPz3-VpZLi9evQmxMaP-36" target="wY4W4VZifrKlg0zCaD7g-103">
          <mxGeometry relative="1" as="geometry" />
        </mxCell>
        <mxCell id="TKPz3-VpZLi9evQmxMaP-36" value="동물" style="whiteSpace=wrap;html=1;align=center;labelBackgroundColor=none;fillColor=#182E3E;strokeColor=#FFFFFF;fontColor=#FFFFFF;" parent="1" vertex="1">
          <mxGeometry x="492" y="662" width="65" height="30" as="geometry" />
        </mxCell>
        <mxCell id="XNvULCzM_jkl3tWQT3Cz-20" value="1" style="edgeStyle=orthogonalEdgeStyle;rounded=0;orthogonalLoop=1;jettySize=auto;html=1;endArrow=none;endFill=0;labelBackgroundColor=none;strokeColor=#23445D;fontColor=default;" parent="1" source="XNvULCzM_jkl3tWQT3Cz-2" target="TKPz3-VpZLi9evQmxMaP-36" edge="1">
          <mxGeometry relative="1" as="geometry" />
        </mxCell>
        <mxCell id="XNvULCzM_jkl3tWQT3Cz-2" value="조련" style="shape=associativeEntity;whiteSpace=wrap;html=1;align=center;fillColor=none;labelBackgroundColor=none;strokeColor=#FFFFFF;fontColor=#FFFFFF;" parent="1" vertex="1">
          <mxGeometry x="304" y="660" width="60" height="30" as="geometry" />
        </mxCell>
        <mxCell id="XNvULCzM_jkl3tWQT3Cz-11" value="N" style="edgeStyle=orthogonalEdgeStyle;rounded=0;orthogonalLoop=1;jettySize=auto;html=1;endArrow=none;endFill=0;shape=link;labelBackgroundColor=none;strokeColor=#23445D;fontColor=default;" parent="1" source="wY4W4VZifrKlg0zCaD7g-32" target="wY4W4VZifrKlg0zCaD7g-29" edge="1">
          <mxGeometry relative="1" as="geometry">
            <mxPoint x="381.9999999999998" y="794.5" as="sourcePoint" />
            <mxPoint x="544" y="794.9999999999998" as="targetPoint" />
          </mxGeometry>
        </mxCell>
        <mxCell id="XNvULCzM_jkl3tWQT3Cz-10" value="1" style="edgeStyle=orthogonalEdgeStyle;rounded=0;orthogonalLoop=1;jettySize=auto;html=1;entryX=0.184;entryY=0.546;entryDx=0;entryDy=0;entryPerimeter=0;endArrow=none;endFill=0;shape=link;labelBackgroundColor=none;strokeColor=#23445D;fontColor=default;" parent="1" source="TKPz3-VpZLi9evQmxMaP-33" target="wY4W4VZifrKlg0zCaD7g-32" edge="1">
          <mxGeometry relative="1" as="geometry">
            <mxPoint x="320.92599999999993" y="796.704" as="targetPoint" />
            <Array as="points">
              <mxPoint x="180" y="750" />
              <mxPoint x="321" y="750" />
              <mxPoint x="321" y="797" />
            </Array>
          </mxGeometry>
        </mxCell>
        <mxCell id="XNvULCzM_jkl3tWQT3Cz-14" value="N" style="edgeStyle=orthogonalEdgeStyle;rounded=0;orthogonalLoop=1;jettySize=auto;html=1;endArrow=none;endFill=0;shape=link;labelBackgroundColor=none;strokeColor=#23445D;fontColor=default;" parent="1" source="wY4W4VZifrKlg0zCaD7g-34" target="wY4W4VZifrKlg0zCaD7g-30" edge="1">
          <mxGeometry relative="1" as="geometry">
            <mxPoint x="364" y="855.0000000000002" as="sourcePoint" />
            <mxPoint x="563" y="912.4999999999998" as="targetPoint" />
            <Array as="points">
              <mxPoint x="484" y="854" />
              <mxPoint x="511" y="854" />
            </Array>
          </mxGeometry>
        </mxCell>
        <mxCell id="XNvULCzM_jkl3tWQT3Cz-13" value="1" style="edgeStyle=orthogonalEdgeStyle;rounded=0;orthogonalLoop=1;jettySize=auto;html=1;entryX=0.153;entryY=0.473;entryDx=0;entryDy=0;entryPerimeter=0;endArrow=none;endFill=0;labelBackgroundColor=none;strokeColor=#23445D;fontColor=default;" parent="1" source="TKPz3-VpZLi9evQmxMaP-33" target="wY4W4VZifrKlg0zCaD7g-34" edge="1">
          <mxGeometry relative="1" as="geometry">
            <mxPoint x="308.67999999999984" y="852.72" as="targetPoint" />
            <Array as="points">
              <mxPoint x="160" y="853" />
            </Array>
          </mxGeometry>
        </mxCell>
        <mxCell id="XNvULCzM_jkl3tWQT3Cz-18" value="1" style="edgeStyle=orthogonalEdgeStyle;rounded=0;orthogonalLoop=1;jettySize=auto;html=1;endArrow=none;endFill=0;labelBackgroundColor=none;strokeColor=#23445D;fontColor=default;" parent="1" source="XNvULCzM_jkl3tWQT3Cz-16" target="TKPz3-VpZLi9evQmxMaP-34" edge="1">
          <mxGeometry relative="1" as="geometry" />
        </mxCell>
        <mxCell id="XNvULCzM_jkl3tWQT3Cz-16" value="보관" style="shape=associativeEntity;whiteSpace=wrap;html=1;align=center;fillColor=none;labelBackgroundColor=none;strokeColor=#FFFFFF;fontColor=#FFFFFF;" parent="1" vertex="1">
          <mxGeometry x="544" y="320" width="60" height="25" as="geometry" />
        </mxCell>
        <mxCell id="wY4W4VZifrKlg0zCaD7g-10" value="1" style="edgeStyle=orthogonalEdgeStyle;rounded=0;orthogonalLoop=1;jettySize=auto;html=1;endArrow=none;endFill=0;labelBackgroundColor=none;strokeColor=#23445D;fontColor=default;" edge="1" parent="1" source="wY4W4VZifrKlg0zCaD7g-7" target="TKPz3-VpZLi9evQmxMaP-34">
          <mxGeometry relative="1" as="geometry">
            <Array as="points">
              <mxPoint x="550" y="208" />
            </Array>
          </mxGeometry>
        </mxCell>
        <mxCell id="wY4W4VZifrKlg0zCaD7g-7" value="이용" style="shape=associativeEntity;whiteSpace=wrap;html=1;align=center;fillColor=none;labelBackgroundColor=none;strokeColor=#FFFFFF;fontColor=#FFFFFF;" vertex="1" parent="1">
          <mxGeometry x="270" y="195" width="60" height="25" as="geometry" />
        </mxCell>
        <mxCell id="wY4W4VZifrKlg0zCaD7g-12" value="N" style="edgeStyle=orthogonalEdgeStyle;rounded=0;orthogonalLoop=1;jettySize=auto;html=1;entryX=0.389;entryY=0.895;entryDx=0;entryDy=0;entryPerimeter=0;endArrow=none;endFill=0;labelBackgroundColor=none;strokeColor=#23445D;fontColor=default;" edge="1" parent="1" source="TKPz3-VpZLi9evQmxMaP-33" target="TKPz3-VpZLi9evQmxMaP-30">
          <mxGeometry relative="1" as="geometry">
            <Array as="points">
              <mxPoint x="160" y="128" />
              <mxPoint x="245" y="128" />
              <mxPoint x="245" y="137" />
            </Array>
          </mxGeometry>
        </mxCell>
        <mxCell id="wY4W4VZifrKlg0zCaD7g-24" value="1" style="edgeStyle=orthogonalEdgeStyle;rounded=0;orthogonalLoop=1;jettySize=auto;html=1;entryX=1;entryY=0.5;entryDx=0;entryDy=0;endArrow=none;endFill=0;labelBackgroundColor=none;strokeColor=#23445D;fontColor=default;" edge="1" parent="1" source="wY4W4VZifrKlg0zCaD7g-13" target="wY4W4VZifrKlg0zCaD7g-20">
          <mxGeometry relative="1" as="geometry" />
        </mxCell>
        <mxCell id="wY4W4VZifrKlg0zCaD7g-94" style="edgeStyle=orthogonalEdgeStyle;rounded=0;orthogonalLoop=1;jettySize=auto;html=1;entryX=0;entryY=0.5;entryDx=0;entryDy=0;strokeColor=#23445D;endArrow=none;endFill=0;" edge="1" parent="1" source="wY4W4VZifrKlg0zCaD7g-13" target="wY4W4VZifrKlg0zCaD7g-87">
          <mxGeometry relative="1" as="geometry" />
        </mxCell>
        <mxCell id="wY4W4VZifrKlg0zCaD7g-95" style="edgeStyle=orthogonalEdgeStyle;rounded=0;orthogonalLoop=1;jettySize=auto;html=1;strokeColor=#23445D;endArrow=none;endFill=0;" edge="1" parent="1" source="wY4W4VZifrKlg0zCaD7g-13" target="wY4W4VZifrKlg0zCaD7g-92">
          <mxGeometry relative="1" as="geometry" />
        </mxCell>
        <mxCell id="wY4W4VZifrKlg0zCaD7g-13" value="이벤트" style="whiteSpace=wrap;html=1;align=center;labelBackgroundColor=none;fillColor=#182E3E;strokeColor=#FFFFFF;fontColor=#FFFFFF;" vertex="1" parent="1">
          <mxGeometry x="620" y="535" width="65" height="30" as="geometry" />
        </mxCell>
        <mxCell id="wY4W4VZifrKlg0zCaD7g-17" value="소유" style="shape=associativeEntity;whiteSpace=wrap;html=1;align=center;fillColor=none;labelBackgroundColor=none;strokeColor=#FFFFFF;fontColor=#FFFFFF;" vertex="1" parent="1">
          <mxGeometry x="210" y="460" width="60" height="25" as="geometry" />
        </mxCell>
        <mxCell id="wY4W4VZifrKlg0zCaD7g-19" value="1" style="edgeStyle=orthogonalEdgeStyle;rounded=0;orthogonalLoop=1;jettySize=auto;html=1;entryX=0.931;entryY=0.028;entryDx=0;entryDy=0;entryPerimeter=0;endArrow=none;endFill=0;labelBackgroundColor=none;strokeColor=#23445D;fontColor=default;" edge="1" parent="1" source="wY4W4VZifrKlg0zCaD7g-17" target="TKPz3-VpZLi9evQmxMaP-33">
          <mxGeometry relative="1" as="geometry" />
        </mxCell>
        <mxCell id="wY4W4VZifrKlg0zCaD7g-25" value="N" style="edgeStyle=orthogonalEdgeStyle;rounded=0;orthogonalLoop=1;jettySize=auto;html=1;entryX=1;entryY=0.25;entryDx=0;entryDy=0;endArrow=none;endFill=0;labelBackgroundColor=none;strokeColor=#23445D;fontColor=default;" edge="1" parent="1" source="wY4W4VZifrKlg0zCaD7g-20" target="TKPz3-VpZLi9evQmxMaP-33">
          <mxGeometry relative="1" as="geometry" />
        </mxCell>
        <mxCell id="wY4W4VZifrKlg0zCaD7g-90" style="edgeStyle=orthogonalEdgeStyle;rounded=0;orthogonalLoop=1;jettySize=auto;html=1;entryX=1;entryY=1;entryDx=0;entryDy=0;strokeColor=#23445D;endArrow=none;endFill=0;" edge="1" parent="1" source="wY4W4VZifrKlg0zCaD7g-20" target="wY4W4VZifrKlg0zCaD7g-88">
          <mxGeometry relative="1" as="geometry">
            <Array as="points">
              <mxPoint x="423" y="515" />
              <mxPoint x="411" y="515" />
            </Array>
          </mxGeometry>
        </mxCell>
        <mxCell id="wY4W4VZifrKlg0zCaD7g-91" style="edgeStyle=orthogonalEdgeStyle;rounded=0;orthogonalLoop=1;jettySize=auto;html=1;strokeColor=#23445D;endArrow=none;endFill=0;" edge="1" parent="1" source="wY4W4VZifrKlg0zCaD7g-20" target="wY4W4VZifrKlg0zCaD7g-89">
          <mxGeometry relative="1" as="geometry">
            <Array as="points">
              <mxPoint x="449" y="515" />
            </Array>
          </mxGeometry>
        </mxCell>
        <mxCell id="wY4W4VZifrKlg0zCaD7g-20" value="영향" style="shape=associativeEntity;whiteSpace=wrap;html=1;align=center;fillColor=none;labelBackgroundColor=none;strokeColor=#FFFFFF;fontColor=#FFFFFF;" vertex="1" parent="1">
          <mxGeometry x="404" y="535" width="60" height="25" as="geometry" />
        </mxCell>
        <mxCell id="wY4W4VZifrKlg0zCaD7g-22" value="1" style="edgeStyle=orthogonalEdgeStyle;rounded=0;orthogonalLoop=1;jettySize=auto;html=1;endArrow=none;endFill=0;labelBackgroundColor=none;strokeColor=#23445D;fontColor=default;" edge="1" parent="1" source="wY4W4VZifrKlg0zCaD7g-21" target="wY4W4VZifrKlg0zCaD7g-13">
          <mxGeometry relative="1" as="geometry" />
        </mxCell>
        <mxCell id="wY4W4VZifrKlg0zCaD7g-23" value="N" style="edgeStyle=orthogonalEdgeStyle;rounded=0;orthogonalLoop=1;jettySize=auto;html=1;entryX=1;entryY=0.5;entryDx=0;entryDy=0;endArrow=none;endFill=0;labelBackgroundColor=none;strokeColor=#23445D;fontColor=default;" edge="1" parent="1" source="wY4W4VZifrKlg0zCaD7g-21" target="TKPz3-VpZLi9evQmxMaP-34">
          <mxGeometry relative="1" as="geometry">
            <Array as="points">
              <mxPoint x="700" y="238" />
              <mxPoint x="621" y="238" />
              <mxPoint x="621" y="151" />
              <mxPoint x="604" y="151" />
            </Array>
          </mxGeometry>
        </mxCell>
        <mxCell id="wY4W4VZifrKlg0zCaD7g-99" style="edgeStyle=orthogonalEdgeStyle;rounded=0;orthogonalLoop=1;jettySize=auto;html=1;entryX=0;entryY=0.5;entryDx=0;entryDy=0;strokeColor=#23445D;" edge="1" parent="1" source="wY4W4VZifrKlg0zCaD7g-21" target="wY4W4VZifrKlg0zCaD7g-98">
          <mxGeometry relative="1" as="geometry" />
        </mxCell>
        <mxCell id="wY4W4VZifrKlg0zCaD7g-100" style="edgeStyle=orthogonalEdgeStyle;rounded=0;orthogonalLoop=1;jettySize=auto;html=1;entryX=0;entryY=0.5;entryDx=0;entryDy=0;strokeColor=#23445D;" edge="1" parent="1" source="wY4W4VZifrKlg0zCaD7g-21" target="wY4W4VZifrKlg0zCaD7g-97">
          <mxGeometry relative="1" as="geometry" />
        </mxCell>
        <mxCell id="wY4W4VZifrKlg0zCaD7g-21" value="영향" style="shape=associativeEntity;whiteSpace=wrap;html=1;align=center;fillColor=none;labelBackgroundColor=none;strokeColor=#FFFFFF;fontColor=#FFFFFF;" vertex="1" parent="1">
          <mxGeometry x="670" y="360" width="60" height="25" as="geometry" />
        </mxCell>
        <mxCell id="wY4W4VZifrKlg0zCaD7g-64" style="edgeStyle=orthogonalEdgeStyle;rounded=0;orthogonalLoop=1;jettySize=auto;html=1;strokeColor=#23445D;endArrow=none;endFill=0;" edge="1" parent="1" source="wY4W4VZifrKlg0zCaD7g-29" target="wY4W4VZifrKlg0zCaD7g-53">
          <mxGeometry relative="1" as="geometry" />
        </mxCell>
        <mxCell id="wY4W4VZifrKlg0zCaD7g-65" style="edgeStyle=orthogonalEdgeStyle;rounded=0;orthogonalLoop=1;jettySize=auto;html=1;strokeColor=#23445D;endArrow=none;endFill=0;" edge="1" parent="1" source="wY4W4VZifrKlg0zCaD7g-29" target="wY4W4VZifrKlg0zCaD7g-52">
          <mxGeometry relative="1" as="geometry" />
        </mxCell>
        <mxCell id="wY4W4VZifrKlg0zCaD7g-29" value="기술" style="shape=ext;margin=3;double=1;whiteSpace=wrap;html=1;align=center;labelBackgroundColor=none;fillColor=#182E3E;strokeColor=#FFFFFF;fontColor=#FFFFFF;" vertex="1" parent="1">
          <mxGeometry x="550" y="781" width="60" height="29" as="geometry" />
        </mxCell>
        <mxCell id="wY4W4VZifrKlg0zCaD7g-58" style="edgeStyle=orthogonalEdgeStyle;rounded=0;orthogonalLoop=1;jettySize=auto;html=1;strokeColor=#23445D;endArrow=none;endFill=0;" edge="1" parent="1" source="wY4W4VZifrKlg0zCaD7g-30" target="wY4W4VZifrKlg0zCaD7g-56">
          <mxGeometry relative="1" as="geometry" />
        </mxCell>
        <mxCell id="wY4W4VZifrKlg0zCaD7g-59" style="edgeStyle=orthogonalEdgeStyle;rounded=0;orthogonalLoop=1;jettySize=auto;html=1;strokeColor=#23445D;endArrow=none;endFill=0;" edge="1" parent="1" source="wY4W4VZifrKlg0zCaD7g-30" target="wY4W4VZifrKlg0zCaD7g-55">
          <mxGeometry relative="1" as="geometry" />
        </mxCell>
        <mxCell id="wY4W4VZifrKlg0zCaD7g-60" style="edgeStyle=orthogonalEdgeStyle;rounded=0;orthogonalLoop=1;jettySize=auto;html=1;entryX=0;entryY=0.5;entryDx=0;entryDy=0;strokeColor=#23445D;endArrow=none;endFill=0;" edge="1" parent="1" source="wY4W4VZifrKlg0zCaD7g-30" target="wY4W4VZifrKlg0zCaD7g-57">
          <mxGeometry relative="1" as="geometry" />
        </mxCell>
        <mxCell id="wY4W4VZifrKlg0zCaD7g-63" style="edgeStyle=orthogonalEdgeStyle;rounded=0;orthogonalLoop=1;jettySize=auto;html=1;strokeColor=#23445D;endArrow=none;endFill=0;" edge="1" parent="1" source="wY4W4VZifrKlg0zCaD7g-30" target="wY4W4VZifrKlg0zCaD7g-61">
          <mxGeometry relative="1" as="geometry">
            <Array as="points">
              <mxPoint x="562" y="911" />
              <mxPoint x="562" y="1016" />
            </Array>
          </mxGeometry>
        </mxCell>
        <mxCell id="wY4W4VZifrKlg0zCaD7g-30" value="성격" style="shape=ext;margin=3;double=1;whiteSpace=wrap;html=1;align=center;labelBackgroundColor=none;fillColor=#182E3E;strokeColor=#FFFFFF;fontColor=#FFFFFF;" vertex="1" parent="1">
          <mxGeometry x="481" y="896" width="60" height="29" as="geometry" />
        </mxCell>
        <mxCell id="wY4W4VZifrKlg0zCaD7g-32" value="내제" style="shape=rhombus;double=1;perimeter=rhombusPerimeter;whiteSpace=wrap;html=1;align=center;strokeColor=#FFFFFF;verticalAlign=middle;fontFamily=Helvetica;fontSize=12;fontColor=#FFFFFF;fillColor=none;labelBackgroundColor=none;" vertex="1" parent="1">
          <mxGeometry x="322" y="781" width="59" height="29" as="geometry" />
        </mxCell>
        <mxCell id="wY4W4VZifrKlg0zCaD7g-34" value="내제" style="shape=rhombus;double=1;perimeter=rhombusPerimeter;whiteSpace=wrap;html=1;align=center;strokeColor=#FFFFFF;verticalAlign=middle;fontFamily=Helvetica;fontSize=12;fontColor=#FFFFFF;fillColor=none;labelBackgroundColor=none;" vertex="1" parent="1">
          <mxGeometry x="305" y="839" width="59" height="29" as="geometry" />
        </mxCell>
        <mxCell id="wY4W4VZifrKlg0zCaD7g-38" value="이름" style="ellipse;whiteSpace=wrap;html=1;align=center;strokeColor=#FFFFFF;fontColor=#FFFFFF;fillColor=#182E3E;" vertex="1" parent="1">
          <mxGeometry x="-21" y="553" width="59" height="30" as="geometry" />
        </mxCell>
        <mxCell id="wY4W4VZifrKlg0zCaD7g-41" value="ID" style="ellipse;whiteSpace=wrap;html=1;align=center;fontStyle=4;strokeColor=#FFFFFF;fontColor=#FFFFFF;fillColor=#182E3E;" vertex="1" parent="1">
          <mxGeometry x="-21" y="516" width="60" height="29" as="geometry" />
        </mxCell>
        <mxCell id="wY4W4VZifrKlg0zCaD7g-43" value="나이" style="ellipse;whiteSpace=wrap;html=1;align=center;strokeColor=#FFFFFF;fontColor=#FFFFFF;fillColor=#182E3E;" vertex="1" parent="1">
          <mxGeometry x="-21" y="591" width="59" height="30" as="geometry" />
        </mxCell>
        <mxCell id="wY4W4VZifrKlg0zCaD7g-44" value="성별" style="ellipse;whiteSpace=wrap;html=1;align=center;strokeColor=#FFFFFF;fontColor=#FFFFFF;fillColor=#182E3E;" vertex="1" parent="1">
          <mxGeometry x="-22" y="630" width="59" height="30" as="geometry" />
        </mxCell>
        <mxCell id="wY4W4VZifrKlg0zCaD7g-45" value="건강" style="ellipse;whiteSpace=wrap;html=1;align=center;strokeColor=#FFFFFF;fontColor=#FFFFFF;fillColor=#182E3E;" vertex="1" parent="1">
          <mxGeometry x="-21" y="669" width="59" height="30" as="geometry" />
        </mxCell>
        <mxCell id="wY4W4VZifrKlg0zCaD7g-52" value="이름" style="ellipse;whiteSpace=wrap;html=1;align=center;strokeColor=#FFFFFF;fontColor=#FFFFFF;fillColor=#182E3E;" vertex="1" parent="1">
          <mxGeometry x="687" y="789" width="59" height="30" as="geometry" />
        </mxCell>
        <mxCell id="wY4W4VZifrKlg0zCaD7g-53" value="ID" style="ellipse;whiteSpace=wrap;html=1;align=center;fontStyle=4;strokeColor=#FFFFFF;fontColor=#FFFFFF;fillColor=#182E3E;" vertex="1" parent="1">
          <mxGeometry x="687" y="752" width="60" height="29" as="geometry" />
        </mxCell>
        <mxCell id="wY4W4VZifrKlg0zCaD7g-54" value="기술 레벨" style="ellipse;whiteSpace=wrap;html=1;align=center;strokeColor=#FFFFFF;fontColor=#FFFFFF;fillColor=#182E3E;" vertex="1" parent="1">
          <mxGeometry x="687" y="827" width="59" height="30" as="geometry" />
        </mxCell>
        <mxCell id="wY4W4VZifrKlg0zCaD7g-55" value="설명" style="ellipse;whiteSpace=wrap;html=1;align=center;strokeColor=#FFFFFF;fontColor=#FFFFFF;fillColor=#182E3E;" vertex="1" parent="1">
          <mxGeometry x="582" y="923" width="59" height="30" as="geometry" />
        </mxCell>
        <mxCell id="wY4W4VZifrKlg0zCaD7g-56" value="ID" style="ellipse;whiteSpace=wrap;html=1;align=center;fontStyle=4;strokeColor=#FFFFFF;fontColor=#FFFFFF;fillColor=#182E3E;" vertex="1" parent="1">
          <mxGeometry x="582" y="886" width="60" height="29" as="geometry" />
        </mxCell>
        <mxCell id="wY4W4VZifrKlg0zCaD7g-57" value="효과" style="ellipse;whiteSpace=wrap;html=1;align=center;strokeColor=#FFFFFF;fontColor=#FFFFFF;fillColor=#182E3E;" vertex="1" parent="1">
          <mxGeometry x="582" y="961" width="59" height="30" as="geometry" />
        </mxCell>
        <mxCell id="wY4W4VZifrKlg0zCaD7g-61" value="이름" style="ellipse;whiteSpace=wrap;html=1;align=center;strokeColor=#FFFFFF;fontColor=#FFFFFF;fillColor=#182E3E;" vertex="1" parent="1">
          <mxGeometry x="583" y="1001" width="59" height="30" as="geometry" />
        </mxCell>
        <mxCell id="wY4W4VZifrKlg0zCaD7g-66" style="edgeStyle=orthogonalEdgeStyle;rounded=0;orthogonalLoop=1;jettySize=auto;html=1;entryX=0.014;entryY=0.772;entryDx=0;entryDy=0;entryPerimeter=0;strokeColor=#23445D;endArrow=none;endFill=0;" edge="1" parent="1" source="wY4W4VZifrKlg0zCaD7g-29" target="wY4W4VZifrKlg0zCaD7g-54">
          <mxGeometry relative="1" as="geometry">
            <Array as="points">
              <mxPoint x="649" y="796" />
              <mxPoint x="649" y="847" />
              <mxPoint x="688" y="847" />
            </Array>
          </mxGeometry>
        </mxCell>
        <mxCell id="wY4W4VZifrKlg0zCaD7g-67" value="유형" style="ellipse;whiteSpace=wrap;html=1;align=center;strokeColor=#FFFFFF;fontColor=#FFFFFF;fillColor=#182E3E;" vertex="1" parent="1">
          <mxGeometry x="671" y="57" width="59" height="30" as="geometry" />
        </mxCell>
        <mxCell id="wY4W4VZifrKlg0zCaD7g-68" value="ID" style="ellipse;whiteSpace=wrap;html=1;align=center;fontStyle=4;strokeColor=#FFFFFF;fontColor=#FFFFFF;fillColor=#182E3E;" vertex="1" parent="1">
          <mxGeometry x="671" y="20" width="60" height="29" as="geometry" />
        </mxCell>
        <mxCell id="wY4W4VZifrKlg0zCaD7g-69" value="자재" style="ellipse;whiteSpace=wrap;html=1;align=center;strokeColor=#FFFFFF;fontColor=#FFFFFF;fillColor=#182E3E;" vertex="1" parent="1">
          <mxGeometry x="671" y="95" width="59" height="30" as="geometry" />
        </mxCell>
        <mxCell id="wY4W4VZifrKlg0zCaD7g-70" value="상태" style="ellipse;whiteSpace=wrap;html=1;align=center;strokeColor=#FFFFFF;fontColor=#FFFFFF;fillColor=#182E3E;" vertex="1" parent="1">
          <mxGeometry x="671" y="134" width="59" height="30" as="geometry" />
        </mxCell>
        <mxCell id="wY4W4VZifrKlg0zCaD7g-77" value="건설중인 정착민" style="ellipse;whiteSpace=wrap;html=1;align=center;strokeColor=#FFFFFF;fontColor=#FFFFFF;fillColor=#182E3E;" vertex="1" parent="1">
          <mxGeometry x="202" y="47" width="59" height="30" as="geometry" />
        </mxCell>
        <mxCell id="wY4W4VZifrKlg0zCaD7g-79" value="이름" style="ellipse;whiteSpace=wrap;html=1;align=center;strokeColor=#FFFFFF;fontColor=#FFFFFF;fillColor=#182E3E;" vertex="1" parent="1">
          <mxGeometry x="314" y="329" width="59" height="30" as="geometry" />
        </mxCell>
        <mxCell id="wY4W4VZifrKlg0zCaD7g-80" value="품질" style="ellipse;whiteSpace=wrap;html=1;align=center;strokeColor=#FFFFFF;fontColor=#FFFFFF;fillColor=#182E3E;" vertex="1" parent="1">
          <mxGeometry x="458" y="329" width="59" height="30" as="geometry" />
        </mxCell>
        <mxCell id="wY4W4VZifrKlg0zCaD7g-81" value="유형" style="ellipse;whiteSpace=wrap;html=1;align=center;strokeColor=#FFFFFF;fontColor=#FFFFFF;fillColor=#182E3E;" vertex="1" parent="1">
          <mxGeometry x="386" y="329" width="59" height="30" as="geometry" />
        </mxCell>
        <mxCell id="wY4W4VZifrKlg0zCaD7g-82" value="ID" style="ellipse;whiteSpace=wrap;html=1;align=center;fontStyle=4;strokeColor=#FFFFFF;fontColor=#FFFFFF;fillColor=#182E3E;" vertex="1" parent="1">
          <mxGeometry x="242" y="329" width="60" height="29" as="geometry" />
        </mxCell>
        <mxCell id="wY4W4VZifrKlg0zCaD7g-85" style="edgeStyle=orthogonalEdgeStyle;rounded=0;orthogonalLoop=1;jettySize=auto;html=1;entryX=0.299;entryY=0.872;entryDx=0;entryDy=0;entryPerimeter=0;strokeColor=#23445D;endArrow=none;endFill=0;" edge="1" parent="1" source="TKPz3-VpZLi9evQmxMaP-35" target="wY4W4VZifrKlg0zCaD7g-81">
          <mxGeometry relative="1" as="geometry">
            <Array as="points">
              <mxPoint x="404" y="392" />
            </Array>
          </mxGeometry>
        </mxCell>
        <mxCell id="wY4W4VZifrKlg0zCaD7g-86" style="edgeStyle=orthogonalEdgeStyle;rounded=0;orthogonalLoop=1;jettySize=auto;html=1;entryX=0.421;entryY=0.928;entryDx=0;entryDy=0;entryPerimeter=0;strokeColor=#23445D;endArrow=none;endFill=0;" edge="1" parent="1" source="TKPz3-VpZLi9evQmxMaP-35" target="wY4W4VZifrKlg0zCaD7g-80">
          <mxGeometry relative="1" as="geometry">
            <Array as="points">
              <mxPoint x="483" y="396" />
            </Array>
          </mxGeometry>
        </mxCell>
        <mxCell id="wY4W4VZifrKlg0zCaD7g-87" value="ID" style="ellipse;whiteSpace=wrap;html=1;align=center;fontStyle=4;strokeColor=#FFFFFF;fontColor=#FFFFFF;fillColor=#182E3E;" vertex="1" parent="1">
          <mxGeometry x="725" y="496" width="60" height="29" as="geometry" />
        </mxCell>
        <mxCell id="wY4W4VZifrKlg0zCaD7g-88" value="영향 유형" style="ellipse;whiteSpace=wrap;html=1;align=center;strokeColor=#FFFFFF;fontColor=#FFFFFF;fillColor=#182E3E;" vertex="1" parent="1">
          <mxGeometry x="361" y="485" width="59" height="30" as="geometry" />
        </mxCell>
        <mxCell id="wY4W4VZifrKlg0zCaD7g-89" value="영향 강도" style="ellipse;whiteSpace=wrap;html=1;align=center;strokeColor=#FFFFFF;fontColor=#FFFFFF;fillColor=#182E3E;" vertex="1" parent="1">
          <mxGeometry x="451" y="485" width="59" height="30" as="geometry" />
        </mxCell>
        <mxCell id="wY4W4VZifrKlg0zCaD7g-92" value="유형" style="ellipse;whiteSpace=wrap;html=1;align=center;strokeColor=#FFFFFF;fontColor=#FFFFFF;fillColor=#182E3E;" vertex="1" parent="1">
          <mxGeometry x="726" y="535" width="59" height="30" as="geometry" />
        </mxCell>
        <mxCell id="wY4W4VZifrKlg0zCaD7g-93" value="기간" style="ellipse;whiteSpace=wrap;html=1;align=center;strokeColor=#FFFFFF;fontColor=#FFFFFF;fillColor=#182E3E;" vertex="1" parent="1">
          <mxGeometry x="726" y="575" width="59" height="30" as="geometry" />
        </mxCell>
        <mxCell id="wY4W4VZifrKlg0zCaD7g-96" style="edgeStyle=orthogonalEdgeStyle;rounded=0;orthogonalLoop=1;jettySize=auto;html=1;entryX=0.017;entryY=0.7;entryDx=0;entryDy=0;entryPerimeter=0;strokeColor=#23445D;endArrow=none;endFill=0;" edge="1" parent="1" source="wY4W4VZifrKlg0zCaD7g-13" target="wY4W4VZifrKlg0zCaD7g-93">
          <mxGeometry relative="1" as="geometry" />
        </mxCell>
        <mxCell id="wY4W4VZifrKlg0zCaD7g-97" value="영향 유형" style="ellipse;whiteSpace=wrap;html=1;align=center;strokeColor=#FFFFFF;fontColor=#FFFFFF;fillColor=#182E3E;" vertex="1" parent="1">
          <mxGeometry x="746" y="374" width="59" height="30" as="geometry" />
        </mxCell>
        <mxCell id="wY4W4VZifrKlg0zCaD7g-98" value="영향 강도" style="ellipse;whiteSpace=wrap;html=1;align=center;strokeColor=#FFFFFF;fontColor=#FFFFFF;fillColor=#182E3E;" vertex="1" parent="1">
          <mxGeometry x="746" y="333" width="59" height="30" as="geometry" />
        </mxCell>
        <mxCell id="wY4W4VZifrKlg0zCaD7g-101" value="이름" style="ellipse;whiteSpace=wrap;html=1;align=center;strokeColor=#FFFFFF;fontColor=#FFFFFF;fillColor=#182E3E;" vertex="1" parent="1">
          <mxGeometry x="584" y="615" width="59" height="30" as="geometry" />
        </mxCell>
        <mxCell id="wY4W4VZifrKlg0zCaD7g-102" value="ID" style="ellipse;whiteSpace=wrap;html=1;align=center;fontStyle=4;strokeColor=#FFFFFF;fontColor=#FFFFFF;fillColor=#182E3E;" vertex="1" parent="1">
          <mxGeometry x="584" y="578" width="60" height="29" as="geometry" />
        </mxCell>
        <mxCell id="wY4W4VZifrKlg0zCaD7g-103" value="나이" style="ellipse;whiteSpace=wrap;html=1;align=center;strokeColor=#FFFFFF;fontColor=#FFFFFF;fillColor=#182E3E;" vertex="1" parent="1">
          <mxGeometry x="584" y="653" width="59" height="30" as="geometry" />
        </mxCell>
        <mxCell id="wY4W4VZifrKlg0zCaD7g-104" value="성별" style="ellipse;whiteSpace=wrap;html=1;align=center;strokeColor=#FFFFFF;fontColor=#FFFFFF;fillColor=#182E3E;" vertex="1" parent="1">
          <mxGeometry x="583" y="692" width="59" height="30" as="geometry" />
        </mxCell>
        <mxCell id="wY4W4VZifrKlg0zCaD7g-105" value="건강" style="ellipse;whiteSpace=wrap;html=1;align=center;strokeColor=#FFFFFF;fontColor=#FFFFFF;fillColor=#182E3E;" vertex="1" parent="1">
          <mxGeometry x="584" y="731" width="59" height="30" as="geometry" />
        </mxCell>
        <mxCell id="wY4W4VZifrKlg0zCaD7g-106" value="건강" style="ellipse;whiteSpace=wrap;html=1;align=center;strokeColor=#FFFFFF;fontColor=#FFFFFF;fillColor=#182E3E;" vertex="1" parent="1">
          <mxGeometry x="513" y="731" width="59" height="30" as="geometry" />
        </mxCell>
      </root>
    </mxGraphModel>
  </diagram>
</mxfile>
